<svg id="visual" viewBox="0 0 900 600" width="900" height="600" xmlns="http://www.w3.org/2000/svg"
    xmlns:xlink="http://www.w3.org/1999/xlink" version="1.1">
    <rect x="0" y="0" width="900" height="600" fill="#002233"></rect>
    <text x="50" y="50" font-size="250" fill="#ffffff">Wave</text>
    <path
        d="M0 511L21.5 490.5C43 470 86 429 128.8 419.3C171.7 409.7 214.3 431.3 257.2 443C300 454.7 343 456.3 385.8 453.8C428.7 451.3 471.3 444.7 514.2 451.2C557 457.7 600 477.3 642.8 490C685.7 502.7 728.3 508.3 771.2 508.2C814 508 857 502 878.5 499L900 496L900 601L878.5 601C857 601 814 601 771.2 601C728.3 601 685.7 601 642.8 601C600 601 557 601 514.2 601C471.3 601 428.7 601 385.8 601C343 601 300 601 257.2 601C214.3 601 171.7 601 128.8 601C86 601 43 601 21.5 601L0 601Z"
        fill="#0066FF" stroke-linecap="round" stroke-linejoin="miter"></path>
</svg>